
<svg width="1000" height="360" viewBox="0 0 1000 360" xmlns="http://www.w3.org/2000/svg">
  <rect x="10" y="10" rx="18" ry="18" width="980" height="340"
        fill="#0f0a05" stroke="#ef6c00" stroke-width="2"/>

  <!-- ICON -->
  <circle cx="80" cy="80" r="34" fill="none" stroke="#fb8c00" stroke-width="3"/>
  <text x="80" y="88" text-anchor="middle" font-size="22"
        fill="#fb8c00" font-family="monospace">&lt;/&gt;</text>

  <!-- TITLE -->
  <text x="140" y="70" fill="#fb8c00" font-size="24" font-weight="bold">
    Domisnnet · Developer Dashboard
  </text>
  <text x="140" y="96" fill="#bdbdbd" font-size="14">
    Da faísca da ideia à Constelação do código. Construindo um Universo de possibilidades!!
  </text>

  <!-- STATS -->
  <text x="140" y="130" fill="#fff3e0" font-size="14">📦 Repositórios: 39</text>
  <text x="300" y="130" fill="#fff3e0" font-size="14">⭐ Stars: 28</text>

  <!-- GRADE -->
  <circle cx="900" cy="80" r="36" fill="none" stroke="#1c1c1c" stroke-width="6"/>
  <circle cx="900" cy="80" r="36" fill="none" stroke="#fb8c00"
          stroke-width="6" stroke-dasharray="170 60" transform="rotate(-90 900 80)"/>
  <text x="900" y="88" text-anchor="middle" font-size="22"
        fill="#fff3e0" font-weight="bold">A</text>

  <!-- LANGUAGES -->
  <text x="120" y="220" fill="#fb8c00" font-size="18" font-weight="bold">
    Top Languages
  </text>

  
        <text x="120" y="250" fill="#fff3e0" font-size="14">Python</text>
        <rect x="220" y="238" width="420" height="8" rx="4" fill="#1c1c1c"/>
        <rect x="220" y="238" width="176" height="8" rx="4" fill="#fb8c00"/>
        <text x="650" y="250" fill="#bdbdbd" font-size="12">42.0%</text>
        
        <text x="120" y="278" fill="#fff3e0" font-size="14">JavaScript</text>
        <rect x="220" y="266" width="420" height="8" rx="4" fill="#1c1c1c"/>
        <rect x="220" y="266" width="119" height="8" rx="4" fill="#fb8c00"/>
        <text x="650" y="278" fill="#bdbdbd" font-size="12">28.5%</text>
        
        <text x="120" y="306" fill="#fff3e0" font-size="14">TypeScript</text>
        <rect x="220" y="294" width="420" height="8" rx="4" fill="#1c1c1c"/>
        <rect x="220" y="294" width="60" height="8" rx="4" fill="#fb8c00"/>
        <text x="650" y="306" fill="#bdbdbd" font-size="12">14.3%</text>
        
        <text x="120" y="334" fill="#fff3e0" font-size="14">HTML</text>
        <rect x="220" y="322" width="420" height="8" rx="4" fill="#1c1c1c"/>
        <rect x="220" y="322" width="38" height="8" rx="4" fill="#fb8c00"/>
        <text x="650" y="334" fill="#bdbdbd" font-size="12">9.2%</text>
        
        <text x="120" y="362" fill="#fff3e0" font-size="14">CSS</text>
        <rect x="220" y="350" width="420" height="8" rx="4" fill="#1c1c1c"/>
        <rect x="220" y="350" width="25" height="8" rx="4" fill="#fb8c00"/>
        <text x="650" y="362" fill="#bdbdbd" font-size="12">6.0%</text>
        
</svg>
