
<svg width="900" height="360" xmlns="http://www.w3.org/2000/svg">

<rect width="100%" height="100%" rx="28"
 fill="#0a0f0d"
 stroke="#ef553b"
 stroke-width="4"/>

<!-- Ícone -->
<circle cx="90" cy="90" r="32"
 fill="none" stroke="#ef553b" stroke-width="3"/>
<text x="90" y="98" text-anchor="middle"
 fill="#ef553b" font-size="18">&lt;/&gt;</text>

<!-- Título -->
<text x="140" y="70" fill="#ef553b"
 font-size="22" font-weight="bold">
 Domisnnet · Developer Dashboard
</text>

<text x="140" y="96" fill="#a2a2a2" font-size="13">
 Da faísca da ideia à Constelação do código.
</text>

<text x="140" y="118" fill="#a2a2a2" font-size="13">
 Construindo um Universo de possibilidades!!
</text>

<!-- Stats -->
<text x="140" y="150" fill="#a2a2a2" font-size="13">
 📦 Repositórios: 39   ⭐ Stars: 28
</text>

<!-- Qualificação -->
<circle cx="820" cy="90" r="26"
 fill="none" stroke="#ef553b" stroke-width="4"/>
<text x="820" y="98" text-anchor="middle"
 fill="#ef553b" font-size="18" font-weight="bold">
 A
</text>

<!-- Linguagens -->
<text x="260" y="230"
 fill="#ef553b" font-size="16" font-weight="bold">
 Top Languages
</text>


<g>
  <text x="260" y="260" fill="#a2a2a2" font-size="12">
    Python
  </text>

  <rect x="350" y="251"
    width="360" height="10"
    rx="5" fill="#1e1e1e"/>

  <rect x="350" y="251"
    width="296.7917080688738" height="10"
    rx="5" fill="#3572A5"/>

  <text x="720" y="260"
    fill="#a2a2a2" font-size="12">
    82.4%
  </text>
</g>

<g>
  <text x="260" y="286" fill="#a2a2a2" font-size="12">
    Jupyter Notebook
  </text>

  <rect x="350" y="277"
    width="360" height="10"
    rx="5" fill="#1e1e1e"/>

  <rect x="350" y="277"
    width="50.98019344678155" height="10"
    rx="5" fill="#DA5B0B"/>

  <text x="720" y="286"
    fill="#a2a2a2" font-size="12">
    14.2%
  </text>
</g>

<g>
  <text x="260" y="312" fill="#a2a2a2" font-size="12">
    Cython
  </text>

  <rect x="350" y="303"
    width="360" height="10"
    rx="5" fill="#1e1e1e"/>

  <rect x="350" y="303"
    width="7.540103954836648" height="10"
    rx="5" fill="#fedf5b"/>

  <text x="720" y="312"
    fill="#a2a2a2" font-size="12">
    2.1%
  </text>
</g>

<g>
  <text x="260" y="338" fill="#a2a2a2" font-size="12">
    C
  </text>

  <rect x="350" y="329"
    width="360" height="10"
    rx="5" fill="#1e1e1e"/>

  <rect x="350" y="329"
    width="2.321754709491862" height="10"
    rx="5" fill="#555555"/>

  <text x="720" y="338"
    fill="#a2a2a2" font-size="12">
    0.6%
  </text>
</g>

<g>
  <text x="260" y="364" fill="#a2a2a2" font-size="12">
    C++
  </text>

  <rect x="350" y="355"
    width="360" height="10"
    rx="5" fill="#1e1e1e"/>

  <rect x="350" y="355"
    width="0.7135225863970965" height="10"
    rx="5" fill="#f34b7d"/>

  <text x="720" y="364"
    fill="#a2a2a2" font-size="12">
    0.2%
  </text>
</g>


</svg>
