<svg width="600" height="230" xmlns="http://www.w3.org/2000/svg">
    <defs>
        <filter id="shadow" x="-50%" y="-50%" width="200%" height="200%">
            <feDropShadow dx="1" dy="1" stdDeviation="2" flood-color="#000000" flood-opacity="0.3"/>
        </filter>
    </defs>

    <rect width="598" height="228" x="1" y="1" rx="5" ry="5"
            fill="#0a0f0d" stroke="#ef553b"
            stroke-width="2"
    />
    <text x="20" y="30" font-family="Segoe UI, Ubuntu, Sans-Serif"
        font-size="18" font-weight="bold" fill="#ef553b">Top Languages</text>

    <g transform="translate(25, 65)" style="filter:url(#shadow);">
        <rect x="0" y="0" width="550" height="16" fill="#2d2d2d" rx="8" ry="8"/>
        
<rect x="0" y="0" width="522.278166196092" height="16" fill="#3572A5" rx="8" ry="8"/>

<rect x="522.278166196092" y="0" width="18.015580491859637" height="16" fill="#fedf5b" />

<rect x="540.2937466879516" y="0" width="5.1963980955748275" height="16" fill="#555555" />

<rect x="545.4901447835265" y="0" width="1.704820472634353" height="16" fill="#f34b7d" />

<rect x="547.1949652561608" y="0" width="0.8591810778398836" height="16" fill="#DA5B0B" />
<rect x="548.0541463340007" y="0" width="0.3390314465582532" rx="8" ry="8" height="16" fill="#e34c26" //>
    </g>
    
    <g>
        
<g transform="translate(20, 100)">
    <rect width="10" height="10" fill="#3572A5" rx="2" ry="2"/>
    <text x="15" y="10" font-family="Segoe UI, Ubuntu, Sans-Serif"
        font-size="12" fill="#a2a2a2"> Python (95.0%)</text>
</g>

<g transform="translate(20, 125)">
    <rect width="10" height="10" fill="#fedf5b" rx="2" ry="2"/>
    <text x="15" y="10" font-family="Segoe UI, Ubuntu, Sans-Serif"
        font-size="12" fill="#a2a2a2"> Cython (3.3%)</text>
</g>

<g transform="translate(20, 150)">
    <rect width="10" height="10" fill="#555555" rx="2" ry="2"/>
    <text x="15" y="10" font-family="Segoe UI, Ubuntu, Sans-Serif"
        font-size="12" fill="#a2a2a2"> C (0.9%)</text>
</g>

<g transform="translate(300, 100)">
    <rect width="10" height="10" fill="#f34b7d" rx="2" ry="2"/>
    <text x="15" y="10" font-family="Segoe UI, Ubuntu, Sans-Serif"
        font-size="12" fill="#a2a2a2"> C++ (0.3%)</text>
</g>

<g transform="translate(300, 125)">
    <rect width="10" height="10" fill="#DA5B0B" rx="2" ry="2"/>
    <text x="15" y="10" font-family="Segoe UI, Ubuntu, Sans-Serif"
        font-size="12" fill="#a2a2a2"> Jupyter Notebook (0.2%)</text>
</g>

<g transform="translate(300, 150)">
    <rect width="10" height="10" fill="#e34c26" rx="2" ry="2"/>
    <text x="15" y="10" font-family="Segoe UI, Ubuntu, Sans-Serif"
        font-size="12" fill="#a2a2a2"> HTML (0.1%)</text>
</g>

    </g>
</svg>