<svg width="600" height="195" xmlns="http://www.w3.org/2000/svg">
  <rect width="598" height="193" x="1" y="1" rx="5" ry="5"
        fill="#1a1b27" stroke="#414868"
        stroke-width="2"
  />
  <text x="20" y="30" font-family="Segoe UI, Ubuntu, Sans-Serif"
        font-size="18" font-weight="bold" fill="#70a5fd">Top Languages</text>

  <g transform="translate(25, 55)">
    <rect x="0" y="0" width="550" height="10" fill="#414868" rx="5"/>
    
<rect x="0" y="0" width="454.93066895580574" height="10" fill="#3572A5"/>

<rect x="454.93066895580574" y="0" width="76.6776189938575" height="10" fill="#DA5B0B"/>

<rect x="531.6082879496632" y="0" width="11.340820407568353" height="10" fill="#fedf5b"/>

<rect x="542.9491083572316" y="0" width="3.492074293469563" height="10" fill="#555555"/>

<rect x="546.4411826507012" y="0" width="1.0731856692615658" height="10" fill="#f34b7d"/>

<rect x="547.5143683199627" y="0" width="0.6420363796385611" height="10" fill="#e34c26"/>

  </g>
  
  <g>
    
<g transform="translate(20, 80)">
  <rect width="10" height="10" fill="#3572A5" rx="2" ry="2"/>
  <text x="15" y="10" font-family="Segoe UI, Ubuntu, Sans-Serif"
        font-size="12" fill="#a9b1d6"> Python (82.7%)</text>
</g>

<g transform="translate(20, 105)">
  <rect width="10" height="10" fill="#DA5B0B" rx="2" ry="2"/>
  <text x="15" y="10" font-family="Segoe UI, Ubuntu, Sans-Serif"
        font-size="12" fill="#a9b1d6"> Jupyter Notebook (13.9%)</text>
</g>

<g transform="translate(20, 130)">
  <rect width="10" height="10" fill="#fedf5b" rx="2" ry="2"/>
  <text x="15" y="10" font-family="Segoe UI, Ubuntu, Sans-Serif"
        font-size="12" fill="#a9b1d6"> Cython (2.1%)</text>
</g>

<g transform="translate(300, 80)">
  <rect width="10" height="10" fill="#555555" rx="2" ry="2"/>
  <text x="15" y="10" font-family="Segoe UI, Ubuntu, Sans-Serif"
        font-size="12" fill="#a9b1d6"> C (0.6%)</text>
</g>

<g transform="translate(300, 105)">
  <rect width="10" height="10" fill="#f34b7d" rx="2" ry="2"/>
  <text x="15" y="10" font-family="Segoe UI, Ubuntu, Sans-Serif"
        font-size="12" fill="#a9b1d6"> C++ (0.2%)</text>
</g>

<g transform="translate(300, 130)">
  <rect width="10" height="10" fill="#e34c26" rx="2" ry="2"/>
  <text x="15" y="10" font-family="Segoe UI, Ubuntu, Sans-Serif"
        font-size="12" fill="#a9b1d6"> HTML (0.1%)</text>
</g>

  </g>
</svg>