<svg width="600" height="300" xmlns="http://www.w3.org/2000/svg">
  <rect width="598" height="298" x="1" y="1" rx="14" ry="14"
        fill="#0a0f0d" stroke="#ef553b" stroke-width="2"/>

  <text x="40" y="40" fill="#ef553b" font-size="20" font-weight="600">
    Top Languages · GitHub Activity
  </text>

  <text x="40" y="70" fill="#00f5a0" font-size="14">
    Dominant Stack: Python (82.4%)
  </text>

  <rect x="40" y="95" rx="10" ry="10" width="520" height="14" fill="#1f2a2a"/>
  <rect x="40" y="95" rx="10" ry="10" width="428.7006377050715"
        height="14" fill="#00f5a0"/>

  
        <text x="40" y="140" fill="#a2a2a2" font-size="13">1</text>
        <text x="65" y="140" fill="#a2a2a2" font-size="13">Python</text>
        <rect x="200" y="130" rx="6" ry="6" width="296.7927491804341" height="10" fill="#3572A5"/>
        <text x="570" y="140" fill="#a2a2a2" font-size="12" text-anchor="end">82.4%</text>
        
        <text x="40" y="168" fill="#a2a2a2" font-size="13">2</text>
        <text x="65" y="168" fill="#a2a2a2" font-size="13">Jupyter Notebook</text>
        <rect x="200" y="158" rx="6" ry="6" width="50.97961509444113" height="10" fill="#DA5B0B"/>
        <text x="570" y="168" fill="#a2a2a2" font-size="12" text-anchor="end">14.2%</text>
        
        <text x="40" y="196" fill="#a2a2a2" font-size="13">3</text>
        <text x="65" y="196" fill="#a2a2a2" font-size="13">Cython</text>
        <rect x="200" y="186" rx="6" ry="6" width="7.54001841501276" height="10" fill="#fedf5b"/>
        <text x="570" y="196" fill="#a2a2a2" font-size="12" text-anchor="end">2.1%</text>
        
        <text x="40" y="224" fill="#a2a2a2" font-size="13">4</text>
        <text x="65" y="224" fill="#a2a2a2" font-size="13">C</text>
        <rect x="200" y="214" rx="6" ry="6" width="2.3217283700023605" height="10" fill="#555555"/>
        <text x="570" y="224" fill="#a2a2a2" font-size="12" text-anchor="end">0.6%</text>
        
        <text x="40" y="252" fill="#a2a2a2" font-size="13">5</text>
        <text x="65" y="252" fill="#a2a2a2" font-size="13">C++</text>
        <rect x="200" y="242" rx="6" ry="6" width="0.7135144917346428" height="10" fill="#f34b7d"/>
        <text x="570" y="252" fill="#a2a2a2" font-size="12" text-anchor="end">0.2%</text>
        

  <text x="40" y="275" fill="#a2a2a2" font-size="11">
    Languages: 19 · Updated: 2025-12-16
  </text>
</svg>