<svg width="600" height="195" xmlns="http://www.w3.org/2000/svg">
  <rect width="598" height="193" x="1" y="1" rx="5" ry="5"
        fill="#0a0f0d" stroke="#ef553b"
        stroke-width="2"
  />
  <text x="20" y="30" font-family="Segoe UI, Ubuntu, Sans-Serif"
        font-size="18" font-weight="bold" fill="#ef553b">Top Languages</text>

  <g transform="translate(25, 55)">
    <rect x="0" y="0" width="550" height="10" fill="#2d2d2d" rx="5"/>
    
<rect x="0" y="0" width="427.90150260255064" height="10" fill="#3572A5"/>

<rect x="427.90150260255064" y="0" width="99.79615721922019" height="10" fill="#DA5B0B"/>

<rect x="527.6976598217708" y="0" width="14.760112680067651" height="10" fill="#fedf5b"/>

<rect x="542.4577725018385" y="0" width="4.257393840616466" height="10" fill="#555555"/>

<rect x="546.715166342455" y="0" width="1.3967544529991318" height="10" fill="#f34b7d"/>

<rect x="548.1119207954541" y="0" width="0.3100281682760617" height="10" fill="#e34c26"/>

  </g>
  
  <g>
    
<g transform="translate(20, 80)">
  <rect width="10" height="10" fill="#3572A5" rx="2" ry="2"/>
  <text x="15" y="10" font-family="Segoe UI, Ubuntu, Sans-Serif"
        font-size="12" fill="#a2a2a2"> Python (77.8%)</text>
</g>

<g transform="translate(20, 105)">
  <rect width="10" height="10" fill="#DA5B0B" rx="2" ry="2"/>
  <text x="15" y="10" font-family="Segoe UI, Ubuntu, Sans-Serif"
        font-size="12" fill="#a2a2a2"> Jupyter Notebook (18.1%)</text>
</g>

<g transform="translate(20, 130)">
  <rect width="10" height="10" fill="#fedf5b" rx="2" ry="2"/>
  <text x="15" y="10" font-family="Segoe UI, Ubuntu, Sans-Serif"
        font-size="12" fill="#a2a2a2"> Cython (2.7%)</text>
</g>

<g transform="translate(300, 80)">
  <rect width="10" height="10" fill="#555555" rx="2" ry="2"/>
  <text x="15" y="10" font-family="Segoe UI, Ubuntu, Sans-Serif"
        font-size="12" fill="#a2a2a2"> C (0.8%)</text>
</g>

<g transform="translate(300, 105)">
  <rect width="10" height="10" fill="#f34b7d" rx="2" ry="2"/>
  <text x="15" y="10" font-family="Segoe UI, Ubuntu, Sans-Serif"
        font-size="12" fill="#a2a2a2"> C++ (0.3%)</text>
</g>

<g transform="translate(300, 130)">
  <rect width="10" height="10" fill="#e34c26" rx="2" ry="2"/>
  <text x="15" y="10" font-family="Segoe UI, Ubuntu, Sans-Serif"
        font-size="12" fill="#a2a2a2"> HTML (0.1%)</text>
</g>

  </g>
</svg>