
<svg width="720" height="360" viewBox="0 0 720 360"
     xmlns="http://www.w3.org/2000/svg">

  <rect width="100%" height="100%" rx="16"
        fill="#0a0f0d"/>

  <text x="32" y="40"
        font-family="Segoe UI, sans-serif"
        font-size="20" font-weight="700"
        fill="#e6f1e8">
    Top Languages · GitHub Activity
  </text>

  <text x="32" y="64"
        font-family="Segoe UI, sans-serif"
        font-size="14"
        fill="#00ffa6">
    Dominant Stack: Python (82.4%)
  </text>

  <!-- Global bar -->
  <rect x="32" y="86" width="656" height="14" rx="7"
        fill="#1f2d2a"/>
  <rect x="32" y="86"
        width="540"
        height="14" rx="7"
        fill="#00ffa6"/>

  
  <text x="40" y="180" font-size="13" fill="#e6f1e8">1</text>
  <text x="70" y="180" font-size="13" fill="#e6f1e8">Python</text>
  <rect x="220" y="170" width="360" height="10" rx="5"
        fill="#00ffa6"/>
  <text x="600" y="180" font-size="13" fill="#e6f1e8">
    82.4%
  </text>

  <text x="40" y="214" font-size="13" fill="#e6f1e8">2</text>
  <text x="70" y="214" font-size="13" fill="#e6f1e8">Jupyter Notebook</text>
  <rect x="220" y="204" width="61" height="10" rx="5"
        fill="#7fa89a"/>
  <text x="600" y="214" font-size="13" fill="#e6f1e8">
    14.2%
  </text>

  <text x="40" y="248" font-size="13" fill="#e6f1e8">3</text>
  <text x="70" y="248" font-size="13" fill="#e6f1e8">Cython</text>
  <rect x="220" y="238" width="9" height="10" rx="5"
        fill="#7fa89a"/>
  <text x="600" y="248" font-size="13" fill="#e6f1e8">
    2.1%
  </text>

  <text x="40" y="282" font-size="13" fill="#e6f1e8">4</text>
  <text x="70" y="282" font-size="13" fill="#e6f1e8">C</text>
  <rect x="220" y="272" width="6" height="10" rx="5"
        fill="#7fa89a"/>
  <text x="600" y="282" font-size="13" fill="#e6f1e8">
    0.6%
  </text>

  <text x="40" y="316" font-size="13" fill="#e6f1e8">5</text>
  <text x="70" y="316" font-size="13" fill="#e6f1e8">C++</text>
  <rect x="220" y="306" width="6" height="10" rx="5"
        fill="#7fa89a"/>
  <text x="600" y="316" font-size="13" fill="#e6f1e8">
    0.2%
  </text>


  <text x="32" y="332"
        font-family="Segoe UI, sans-serif"
        font-size="12"
        fill="#7fa89a">
    Languages: 19 · Updated: 2025-12-16
  </text>

</svg>
