<svg width="495" height="195" xmlns="http://www.w3.org/2000/svg">
  <rect width="493" height="193" x="1" y="1" rx="5" ry="5"
        fill="#1a1b27" stroke="#414868"
  />
  <text x="20" y="30" font-family="Segoe UI, Ubuntu, Sans-Serif"
        font-size="18" font-weight="bold" fill="#70a5fd">Top Languages</text>
  <g transform="translate(200, 0)"><path d="M 225.0 40.0 A 50 50 0 1 1 180.79992122188506 66.6258040564294 L 198.47995273313103 75.97548243385764 A 30 30 0 1 0 225.0 60.0 Z" fill="#3572A5" /> <path d="M 180.79992122188506 66.6258040564294 A 50 50 0 0 1 214.66928099499967 41.07887731419357 L 218.8015685969998 60.647326388516134 A 30 30 0 0 0 198.47995273313103 75.97548243385764 Z" fill="#DA5B0B" /> <path d="M 214.66928099499967 41.07887731419357 A 50 50 0 0 1 221.07827541308973 40.15403650981934 L 222.64696524785384 60.0924219058916 A 30 30 0 0 0 218.8015685969998 60.647326388516134 Z" fill="#fedf5b" /> <path d="M 221.07827541308973 40.15403650981934 A 50 50 0 0 1 223.07002275001196 40.03726200642594 L 223.84201365000717 60.02235720385556 A 30 30 0 0 0 222.64696524785384 60.0924219058916 Z" fill="#555555" /> <path d="M 223.07002275001196 40.03726200642594 A 50 50 0 0 1 223.68289193932824 40.01735074691906 L 224.20973516359695 60.01041044815143 A 30 30 0 0 0 223.84201365000717 60.02235720385556 Z" fill="#f34b7d" /> <path d="M 223.68289193932824 40.01735074691906 A 50 50 0 0 1 224.0487003095586 40.00905053013129 L 224.42922018573518 60.00543031807878 A 30 30 0 0 0 224.20973516359695 60.01041044815143 Z" fill="#e34c26" /></g>
  <g>
<g transform="translate(20, 50)">
  <rect width="10" height="10" fill="#3572A5" rx="2" ry="2"/>
  <text x="15" y="10" font-family="Segoe UI, Ubuntu, Sans-Serif"
        font-size="12" fill="#a9b1d6"> Python (82.7%)</text>
</g>

<g transform="translate(20, 70)">
  <rect width="10" height="10" fill="#DA5B0B" rx="2" ry="2"/>
  <text x="15" y="10" font-family="Segoe UI, Ubuntu, Sans-Serif"
        font-size="12" fill="#a9b1d6"> Jupyter Notebook (13.9%)</text>
</g>

<g transform="translate(20, 90)">
  <rect width="10" height="10" fill="#fedf5b" rx="2" ry="2"/>
  <text x="15" y="10" font-family="Segoe UI, Ubuntu, Sans-Serif"
        font-size="12" fill="#a9b1d6"> Cython (2.1%)</text>
</g>

<g transform="translate(20, 110)">
  <rect width="10" height="10" fill="#555555" rx="2" ry="2"/>
  <text x="15" y="10" font-family="Segoe UI, Ubuntu, Sans-Serif"
        font-size="12" fill="#a9b1d6"> C (0.6%)</text>
</g>

<g transform="translate(20, 130)">
  <rect width="10" height="10" fill="#f34b7d" rx="2" ry="2"/>
  <text x="15" y="10" font-family="Segoe UI, Ubuntu, Sans-Serif"
        font-size="12" fill="#a9b1d6"> C++ (0.2%)</text>
</g>

<g transform="translate(20, 150)">
  <rect width="10" height="10" fill="#e34c26" rx="2" ry="2"/>
  <text x="15" y="10" font-family="Segoe UI, Ubuntu, Sans-Serif"
        font-size="12" fill="#a9b1d6"> HTML (0.1%)</text>
</g>
</g>
</svg>